<svg width="277" height="238" viewBox="0 0 277 238" fill="none" xmlns="http://www.w3.org/2000/svg">
<path d="M150.998 1.2998C171.539 -1.36719 173.674 19.7073 172.34 22.375C171.756 23.5431 171.358 24.871 171.104 26.0088C170.782 27.4458 171.115 28.9505 171.991 30.1338C174.435 33.432 177.088 34.3355 184.611 32.5117C190.715 31.0322 194.304 35.0904 195.282 37.0469L211.556 76.2627C213.05 81.3848 210.222 84.6224 208.621 85.6006L159.268 106.142C153.079 109.556 148.863 106.853 147.529 105.074L141.661 90.1348C151.798 87.2002 150.998 81.5976 150.998 78.6631L153.398 75.4619L149.131 72.5273L149.931 67.9922C149.93 66.1257 145.929 65.8596 145.662 67.1924L145.129 69.8594C143.21 69.645 141.838 67.9923 141.392 67.1924C143.348 66.7482 145.152 62.488 143.526 59.7236C140.859 55.1885 134.811 56.789 132.321 58.3896C131.788 54.1214 135.79 51.4535 137.657 50.9199C139.151 50.493 142.548 48.2527 144.06 47.1855C150.277 41.2269 145.677 37.0293 141.01 34.3486C140.735 34.191 140.474 33.9912 140.258 33.7598C126.413 18.9226 140.674 3.15309 150.998 1.2998ZM180.608 49.3184C177.824 47.7985 174.605 47.4522 170.204 48.251C165.803 49.05 154.734 53.8531 152.598 54.9209C150.464 55.9879 150.908 57.4106 151.264 58.1221L164.336 90.1348C165.19 93.1217 166.647 93.1579 167.27 92.8027C168.248 92.4469 170.685 91.5225 172.605 90.6689C174.526 89.8153 174.828 88.7122 174.739 88.2676L172.072 81.5986C171.646 80.9583 171.538 79.5531 171.538 78.9307C181.141 76.5831 185.677 71.0164 186.744 68.5264C190.745 55.7217 183.543 50.9201 180.608 49.3184ZM170.204 57.3223C171.716 56.8778 175.059 56.629 176.34 59.1895C177.62 61.7502 178.739 64.7919 177.673 66.3926C176.606 67.9932 172.124 70.287 168.069 70.9277L163.534 59.9902L170.204 57.3223ZM136.59 61.0576C137.123 60.8798 138.298 60.7372 138.725 61.5908C139.151 62.4444 138.902 63.7252 138.725 64.2588C138.547 64.5255 138.084 65.0595 137.657 65.0596C136.59 64.3482 134.883 62.5515 136.59 61.0576Z" fill="#EF7522"/>
<path d="M117.984 31.3193C121.897 29.5409 128.923 27.6899 132.124 36.6533L136.392 47.0596C132.479 48.7492 125.827 54.0495 130.522 61.7324C130.523 63.1554 131.217 66.4275 133.991 68.1348C131.857 70.0911 128.709 75.0173 133.19 79.0723C138.586 83.9537 146.703 78.1957 146.58 77.2871C146.563 77.2588 146.546 77.2314 146.529 77.2051C146.559 77.2247 146.575 77.2524 146.58 77.2871C147.203 78.314 148.101 80.6711 147.062 82.54C145.995 84.034 139.682 86.8976 136.658 88.1426C134.346 89.2986 129.723 92.1975 129.723 94.5449V99.0801C136.392 103.082 139.326 105.483 141.994 114.286C142.794 119.266 141.353 130.346 129.188 134.828C114.249 140.332 99.5771 126.024 105.979 110.552C106.246 107.884 103.792 103.402 93.9746 104.683C90.7733 105.839 83.6778 106.497 80.9033 99.8809L65.1631 63.0664C64.2738 60.0433 63.2963 54.5294 70.7656 51.3281L117.984 31.3193ZM115.851 44.6572C115.673 44.3015 114.73 43.7504 112.383 44.3906C110.035 45.0309 106.959 46.2575 105.98 46.791L104.38 66.7988L89.9736 53.9941C89.262 53.9053 87.3058 54.0478 85.1719 55.3281C83.0385 56.6081 81.7936 57.4615 81.4375 57.7285C81.0818 57.9064 80.5306 58.5296 81.1709 59.5967C81.8136 60.6699 89.9746 80.4953 93.9756 90.2754C93.9862 90.2859 94.7829 91.0735 95.8428 90.8086C96.9068 90.5426 101.95 88.1562 101.979 88.1426C102.423 87.5189 103.046 85.8988 101.979 84.4062C100.911 82.9135 96.9104 73.2918 95.043 68.667L105.98 78.0039L110.782 76.1357L112.116 61.7324L119.853 79.0723C120.208 79.4274 120.92 79.8714 122.521 79.3379C123.588 78.9111 126.521 77.3814 127.855 76.6699C128.122 76.2253 128.443 75.0159 127.589 73.7354L115.851 44.6572Z" fill="#10385A"/>
<path d="M142.458 74.9298L137.39 71.7285C136.767 72.7956 135.255 74.3963 137.39 75.9969C139.524 77.5975 141.925 75.6412 142.458 74.9298Z" fill="#10385A"/>
<path d="M12.5988 162.293C13.1714 163.343 13.8237 164.647 14.5554 166.206C15.319 167.733 16.0985 169.404 16.8938 171.217C17.721 172.999 18.5323 174.828 19.3277 176.705C20.1231 178.582 20.8708 180.348 21.5707 182.003C22.2706 180.348 23.0183 178.582 23.8137 176.705C24.6091 174.828 25.4044 172.999 26.1998 171.217C27.027 169.404 27.8065 167.733 28.5383 166.206C29.3018 164.647 29.9699 163.343 30.5426 162.293H37.3193C37.6374 164.488 37.9238 166.954 38.1783 169.69C38.4646 172.394 38.7033 175.226 38.8941 178.185C39.1169 181.112 39.3077 184.055 39.4668 187.014C39.6577 189.972 39.8168 192.756 39.944 195.365H32.6902C32.5947 192.152 32.4674 188.652 32.3084 184.866C32.1493 181.08 31.9107 177.262 31.5925 173.412C31.0199 174.749 30.3835 176.228 29.6836 177.851C28.9837 179.473 28.2837 181.096 27.5838 182.718C26.9157 184.341 26.2635 185.9 25.6271 187.395C24.9908 188.859 24.45 190.116 24.0046 191.165H18.8028C18.3573 190.116 17.8165 188.859 17.1802 187.395C16.5439 185.9 15.8758 184.341 15.1758 182.718C14.5077 181.096 13.8237 179.473 13.1237 177.851C12.4238 176.228 11.7875 174.749 11.2148 173.412C10.8967 177.262 10.658 181.08 10.499 184.866C10.3399 188.652 10.2126 192.152 10.1172 195.365H2.86328C2.99054 192.756 3.13371 189.972 3.29279 187.014C3.48368 184.055 3.67457 181.112 3.86546 178.185C4.08817 175.226 4.32679 172.394 4.58131 169.69C4.86765 166.954 5.16989 164.488 5.48805 162.293H12.5988Z" fill="#10385A"/>
<path d="M55.7624 190.402C56.4623 190.402 57.1304 190.386 57.7667 190.354C58.403 190.322 58.9121 190.275 59.2939 190.211V184.818C59.0075 184.755 58.578 184.691 58.0053 184.627C57.4327 184.564 56.9077 184.532 56.4305 184.532C55.7624 184.532 55.1261 184.58 54.5216 184.675C53.9489 184.739 53.4398 184.882 52.9944 185.105C52.549 185.327 52.199 185.63 51.9445 186.011C51.69 186.393 51.5627 186.87 51.5627 187.443C51.5627 188.557 51.9286 189.336 52.6604 189.781C53.4239 190.195 54.4579 190.402 55.7624 190.402ZM55.1897 169.595C57.2895 169.595 59.0393 169.833 60.4392 170.311C61.8391 170.788 62.9526 171.472 63.7798 172.363C64.6388 173.253 65.2433 174.335 65.5933 175.608C65.9433 176.88 66.1183 178.296 66.1183 179.855V194.649C65.1002 194.872 63.6844 195.126 61.8709 195.413C60.0574 195.731 57.8622 195.89 55.2851 195.89C53.6625 195.89 52.1831 195.747 50.8469 195.461C49.5425 195.174 48.413 194.713 47.4586 194.077C46.5041 193.408 45.7723 192.549 45.2633 191.5C44.7543 190.45 44.4997 189.161 44.4997 187.634C44.4997 186.17 44.7861 184.93 45.3587 183.912C45.9632 182.893 46.7586 182.082 47.7449 181.478C48.7312 180.873 49.8606 180.444 51.1332 180.189C52.4058 179.903 53.7262 179.76 55.0942 179.76C56.0169 179.76 56.8282 179.807 57.5281 179.903C58.2599 179.966 58.8484 180.062 59.2939 180.189V179.521C59.2939 178.312 58.928 177.342 58.1962 176.61C57.4645 175.878 56.1919 175.512 54.3784 175.512C53.1694 175.512 51.9763 175.608 50.7992 175.799C49.622 175.958 48.6039 176.196 47.7449 176.514L46.8382 170.788C47.2518 170.66 47.7608 170.533 48.3653 170.406C49.0016 170.247 49.6856 170.12 50.4174 170.024C51.1491 169.897 51.9127 169.801 52.7081 169.738C53.5353 169.642 54.3625 169.595 55.1897 169.595Z" fill="#10385A"/>
<path d="M72.3096 164.011L79.4203 162.866V170.263H87.9627V176.18H79.4203V185.009C79.4203 186.505 79.6748 187.698 80.1839 188.588C80.7247 189.479 81.7905 189.925 83.3813 189.925C84.1449 189.925 84.9243 189.861 85.7197 189.734C86.5469 189.575 87.2946 189.368 87.9627 189.113L88.9649 194.649C88.1059 194.999 87.1514 195.301 86.1015 195.556C85.0516 195.81 83.7631 195.938 82.2359 195.938C80.2952 195.938 78.6885 195.683 77.4159 195.174C76.1433 194.633 75.1252 193.902 74.3616 192.979C73.5981 192.024 73.0572 190.879 72.7391 189.543C72.4527 188.207 72.3096 186.727 72.3096 185.105V164.011Z" fill="#10385A"/>
<path d="M91.6281 182.814C91.6281 181 91.9144 179.298 92.4871 177.708C93.0916 176.085 93.9506 174.685 95.0641 173.508C96.1776 172.299 97.5298 171.345 99.1206 170.645C100.711 169.945 102.525 169.595 104.561 169.595C105.897 169.595 107.122 169.722 108.236 169.976C109.349 170.199 110.431 170.533 111.481 170.979L110.001 176.658C109.333 176.403 108.602 176.18 107.806 175.99C107.011 175.799 106.12 175.703 105.134 175.703C103.034 175.703 101.459 176.355 100.409 177.66C99.391 178.964 98.882 180.682 98.882 182.814C98.882 185.073 99.3592 186.823 100.314 188.063C101.3 189.304 103.002 189.925 105.42 189.925C106.279 189.925 107.202 189.845 108.188 189.686C109.174 189.527 110.081 189.272 110.908 188.922L111.91 194.745C111.083 195.095 110.049 195.397 108.808 195.651C107.568 195.906 106.199 196.033 104.704 196.033C102.413 196.033 100.441 195.699 98.7865 195.031C97.1321 194.331 95.764 193.393 94.6823 192.215C93.6324 191.038 92.853 189.654 92.3439 188.063C91.8667 186.441 91.6281 184.691 91.6281 182.814Z" fill="#10385A"/>
<path d="M116.683 195.365V159.477L123.793 158.332V170.358C124.271 170.199 124.875 170.056 125.607 169.929C126.37 169.77 127.102 169.69 127.802 169.69C129.838 169.69 131.524 169.976 132.861 170.549C134.229 171.09 135.311 171.869 136.106 172.888C136.933 173.906 137.506 175.115 137.824 176.514C138.174 177.914 138.349 179.473 138.349 181.191V195.365H131.238V182.05C131.238 179.76 130.936 178.137 130.331 177.183C129.759 176.228 128.677 175.751 127.086 175.751C126.45 175.751 125.845 175.815 125.273 175.942C124.732 176.037 124.239 176.149 123.793 176.276V195.365H116.683Z" fill="#10385A"/>
<path d="M143.115 186.584C143.115 185.375 143.29 184.277 143.64 183.291C143.99 182.273 144.451 181.366 145.024 180.571C145.628 179.744 146.312 179.028 147.076 178.423C147.871 177.787 148.698 177.23 149.557 176.753C148.794 175.83 148.11 174.844 147.505 173.794C146.901 172.713 146.599 171.535 146.599 170.263C146.599 167.463 147.442 165.315 149.128 163.82C150.814 162.293 153.137 161.529 156.095 161.529C157.591 161.529 158.895 161.736 160.009 162.15C161.122 162.532 162.045 163.073 162.777 163.772C163.54 164.441 164.113 165.236 164.495 166.159C164.877 167.049 165.067 168.02 165.067 169.07C165.067 171.01 164.511 172.744 163.397 174.272C162.315 175.767 160.931 177.024 159.245 178.042L164.59 183.387C164.877 182.75 165.147 181.955 165.401 181C165.688 180.014 165.863 179.155 165.926 178.423L171.844 179.187C171.78 179.791 171.669 180.46 171.51 181.191C171.351 181.891 171.144 182.607 170.89 183.339C170.667 184.071 170.396 184.802 170.078 185.534C169.792 186.266 169.474 186.934 169.124 187.539C170.142 188.684 171.128 189.941 172.083 191.309C173.069 192.645 173.912 193.997 174.612 195.365H167.31C167.056 194.951 166.706 194.442 166.26 193.838C165.815 193.202 165.37 192.661 164.924 192.215C163.652 193.233 162.172 194.092 160.486 194.792C158.8 195.461 156.907 195.795 154.807 195.795C152.58 195.795 150.719 195.524 149.223 194.983C147.728 194.411 146.519 193.695 145.596 192.836C144.706 191.945 144.069 190.959 143.688 189.877C143.306 188.763 143.115 187.666 143.115 186.584ZM149.748 185.868C149.748 186.345 149.844 186.839 150.035 187.348C150.226 187.857 150.528 188.334 150.941 188.779C151.387 189.193 151.944 189.543 152.612 189.829C153.28 190.084 154.091 190.211 155.046 190.211C156.382 190.211 157.543 190.036 158.529 189.686C159.547 189.336 160.391 188.875 161.059 188.302L153.423 180.619C152.978 180.841 152.532 181.112 152.087 181.43C151.673 181.748 151.291 182.13 150.941 182.575C150.591 182.989 150.305 183.466 150.082 184.007C149.86 184.548 149.748 185.168 149.748 185.868ZM159.007 169.404C159.007 168.672 158.768 168.02 158.291 167.447C157.814 166.874 157.018 166.588 155.905 166.588C154.887 166.588 154.091 166.906 153.518 167.543C152.978 168.147 152.707 168.942 152.707 169.929C152.707 170.756 152.946 171.567 153.423 172.363C153.9 173.126 154.521 173.858 155.284 174.558C156.302 173.985 157.177 173.301 157.909 172.506C158.641 171.71 159.007 170.676 159.007 169.404Z" fill="#EF7522"/>
<path d="M188.837 161.911C193.769 161.911 197.555 162.786 200.195 164.536C202.836 166.254 204.156 169.086 204.156 173.031C204.156 177.008 202.82 179.887 200.148 181.669C197.475 183.418 193.657 184.293 188.694 184.293H186.356V195.365H178.911V162.77C180.533 162.452 182.251 162.229 184.065 162.102C185.878 161.975 187.469 161.911 188.837 161.911ZM189.314 168.258C188.774 168.258 188.233 168.274 187.692 168.306C187.183 168.338 186.737 168.37 186.356 168.402V177.946H188.694C191.271 177.946 193.212 177.596 194.516 176.896C195.821 176.196 196.473 174.892 196.473 172.983C196.473 172.06 196.298 171.297 195.948 170.692C195.63 170.088 195.153 169.611 194.516 169.261C193.912 168.879 193.164 168.624 192.273 168.497C191.382 168.338 190.396 168.258 189.314 168.258Z" fill="#10385A"/>
<path d="M219.168 195.842C217.1 195.81 215.414 195.588 214.109 195.174C212.837 194.761 211.818 194.188 211.055 193.456C210.323 192.693 209.814 191.786 209.528 190.736C209.273 189.654 209.146 188.445 209.146 187.109V159.477L216.257 158.332V185.677C216.257 186.314 216.304 186.886 216.4 187.395C216.495 187.904 216.67 188.334 216.925 188.684C217.211 189.034 217.609 189.32 218.118 189.543C218.627 189.766 219.311 189.909 220.17 189.972L219.168 195.842Z" fill="#10385A"/>
<path d="M234.537 190.402C235.237 190.402 235.905 190.386 236.542 190.354C237.178 190.322 237.687 190.275 238.069 190.211V184.818C237.782 184.755 237.353 184.691 236.78 184.627C236.207 184.564 235.683 184.532 235.205 184.532C234.537 184.532 233.901 184.58 233.296 184.675C232.724 184.739 232.215 184.882 231.769 185.105C231.324 185.327 230.974 185.63 230.719 186.011C230.465 186.393 230.338 186.87 230.338 187.443C230.338 188.557 230.703 189.336 231.435 189.781C232.199 190.195 233.233 190.402 234.537 190.402ZM233.964 169.595C236.064 169.595 237.814 169.833 239.214 170.311C240.614 170.788 241.727 171.472 242.555 172.363C243.414 173.253 244.018 174.335 244.368 175.608C244.718 176.88 244.893 178.296 244.893 179.855V194.649C243.875 194.872 242.459 195.126 240.646 195.413C238.832 195.731 236.637 195.89 234.06 195.89C232.437 195.89 230.958 195.747 229.622 195.461C228.317 195.174 227.188 194.713 226.233 194.077C225.279 193.408 224.547 192.549 224.038 191.5C223.529 190.45 223.275 189.161 223.275 187.634C223.275 186.17 223.561 184.93 224.134 183.912C224.738 182.893 225.533 182.082 226.52 181.478C227.506 180.873 228.635 180.444 229.908 180.189C231.181 179.903 232.501 179.76 233.869 179.76C234.792 179.76 235.603 179.807 236.303 179.903C237.035 179.966 237.623 180.062 238.069 180.189V179.521C238.069 178.312 237.703 177.342 236.971 176.61C236.239 175.878 234.967 175.512 233.153 175.512C231.944 175.512 230.751 175.608 229.574 175.799C228.397 175.958 227.379 176.196 226.52 176.514L225.613 170.788C226.027 170.66 226.536 170.533 227.14 170.406C227.776 170.247 228.46 170.12 229.192 170.024C229.924 169.897 230.688 169.801 231.483 169.738C232.31 169.642 233.137 169.595 233.964 169.595Z" fill="#10385A"/>
<path d="M273.004 170.263C271.572 175.099 270.077 179.632 268.518 183.864C266.959 188.095 265.257 192.199 263.411 196.176C262.743 197.608 262.075 198.817 261.407 199.803C260.739 200.821 260.007 201.649 259.212 202.285C258.416 202.953 257.51 203.43 256.492 203.717C255.505 204.035 254.344 204.194 253.008 204.194C251.894 204.194 250.86 204.082 249.906 203.86C248.983 203.669 248.22 203.446 247.615 203.192L248.856 197.513C249.588 197.767 250.24 197.942 250.813 198.038C251.385 198.133 251.99 198.181 252.626 198.181C253.899 198.181 254.869 197.831 255.537 197.131C256.237 196.463 256.826 195.524 257.303 194.315C255.68 191.134 254.058 187.57 252.435 183.625C250.813 179.648 249.285 175.194 247.854 170.263H255.394C255.712 171.504 256.078 172.856 256.492 174.319C256.937 175.751 257.398 177.214 257.876 178.71C258.353 180.173 258.83 181.605 259.307 183.005C259.816 184.405 260.294 185.677 260.739 186.823C261.153 185.677 261.582 184.405 262.027 183.005C262.473 181.605 262.902 180.173 263.316 178.71C263.761 177.214 264.175 175.751 264.557 174.319C264.97 172.856 265.336 171.504 265.654 170.263H273.004Z" fill="#10385A"/>
<path d="M61.3247 228.008C60.1795 228.008 59.1362 227.82 58.1949 227.444C57.2537 227.067 56.4458 226.518 55.7712 225.796C55.0966 225.075 54.5711 224.188 54.1946 223.137C53.8337 222.07 53.6533 220.855 53.6533 219.49C53.6533 218.125 53.8573 216.917 54.2651 215.866C54.6887 214.799 55.2535 213.905 55.9594 213.183C56.6654 212.462 57.489 211.913 58.4303 211.536C59.3715 211.16 60.3756 210.971 61.4423 210.971C62.1169 210.971 62.7209 211.018 63.2543 211.112C63.8034 211.207 64.274 211.316 64.6662 211.442C65.0741 211.567 65.4035 211.693 65.6545 211.818C65.9055 211.944 66.0781 212.038 66.1722 212.101L65.5133 213.983C65.3721 213.889 65.1682 213.787 64.9015 213.677C64.6348 213.568 64.3289 213.458 63.9838 213.348C63.6543 213.238 63.2857 213.152 62.8778 213.089C62.4856 213.011 62.0855 212.971 61.6776 212.971C60.8148 212.971 60.0383 213.121 59.348 213.419C58.6577 213.717 58.0694 214.148 57.5831 214.713C57.0968 215.278 56.7203 215.968 56.4536 216.784C56.2026 217.584 56.0771 218.486 56.0771 219.49C56.0771 220.462 56.1869 221.349 56.4065 222.149C56.6419 222.949 56.987 223.639 57.4419 224.22C57.8969 224.784 58.4616 225.224 59.1362 225.537C59.8265 225.851 60.6266 226.008 61.5365 226.008C62.5875 226.008 63.4582 225.898 64.1485 225.679C64.8387 225.459 65.3564 225.263 65.7016 225.09L66.2899 226.973C66.1801 227.051 65.984 227.153 65.7016 227.279C65.4192 227.389 65.0662 227.498 64.6427 227.608C64.2191 227.718 63.7249 227.812 63.1602 227.891C62.5954 227.969 61.9836 228.008 61.3247 228.008Z" fill="#10385A"/>
<path d="M79.2198 221.537C79.2198 222.51 79.0786 223.388 78.7963 224.173C78.5139 224.957 78.1138 225.632 77.5961 226.196C77.0941 226.761 76.4902 227.2 75.7842 227.514C75.0783 227.812 74.3095 227.961 73.4781 227.961C72.6466 227.961 71.8779 227.812 71.172 227.514C70.466 227.2 69.8542 226.761 69.3365 226.196C68.8345 225.632 68.4423 224.957 68.1599 224.173C67.8775 223.388 67.7363 222.51 67.7363 221.537C67.7363 220.58 67.8775 219.709 68.1599 218.925C68.4423 218.125 68.8345 217.443 69.3365 216.878C69.8542 216.313 70.466 215.882 71.172 215.584C71.8779 215.27 72.6466 215.113 73.4781 215.113C74.3095 215.113 75.0783 215.27 75.7842 215.584C76.4902 215.882 77.0941 216.313 77.5961 216.878C78.1138 217.443 78.5139 218.125 78.7963 218.925C79.0786 219.709 79.2198 220.58 79.2198 221.537ZM76.9373 221.537C76.9373 220.157 76.6235 219.066 75.996 218.266C75.3842 217.45 74.5449 217.042 73.4781 217.042C72.4113 217.042 71.5642 217.45 70.9367 218.266C70.3248 219.066 70.0189 220.157 70.0189 221.537C70.0189 222.918 70.3248 224.016 70.9367 224.832C71.5642 225.632 72.4113 226.032 73.4781 226.032C74.5449 226.032 75.3842 225.632 75.996 224.832C76.6235 224.016 76.9373 222.918 76.9373 221.537Z" fill="#10385A"/>
<path d="M82.2988 215.772C82.8008 215.646 83.4676 215.513 84.299 215.372C85.1305 215.231 86.0874 215.16 87.1699 215.16C88.1425 215.16 88.9505 215.301 89.5937 215.584C90.2369 215.85 90.7467 216.235 91.1232 216.737C91.5154 217.223 91.79 217.811 91.9468 218.501C92.1037 219.192 92.1822 219.953 92.1822 220.784V227.655H89.9937V221.255C89.9937 220.502 89.9388 219.858 89.829 219.325C89.7349 218.792 89.5701 218.36 89.3348 218.031C89.0995 217.701 88.7857 217.466 88.3935 217.325C88.0014 217.168 87.515 217.09 86.9346 217.09C86.6993 217.09 86.4561 217.097 86.2051 217.113C85.9541 217.129 85.7109 217.152 85.4756 217.184C85.256 217.199 85.052 217.223 84.8638 217.254C84.6912 217.286 84.5657 217.309 84.4873 217.325V227.655H82.2988V215.772Z" fill="#10385A"/>
<path d="M95.1288 221.561C95.1288 220.478 95.2857 219.537 95.5994 218.737C95.9132 217.921 96.3289 217.246 96.8466 216.713C97.3643 216.18 97.9604 215.78 98.635 215.513C99.3096 215.246 99.9999 215.113 100.706 215.113C102.353 215.113 103.616 215.631 104.494 216.666C105.373 217.686 105.812 219.247 105.812 221.349C105.812 221.443 105.812 221.568 105.812 221.725C105.812 221.866 105.804 222 105.789 222.125H97.4114C97.5055 223.396 97.8741 224.361 98.5173 225.02C99.1605 225.679 100.165 226.008 101.529 226.008C102.298 226.008 102.941 225.945 103.459 225.82C103.992 225.679 104.392 225.545 104.659 225.42L104.965 227.255C104.698 227.396 104.228 227.545 103.553 227.702C102.894 227.859 102.141 227.938 101.294 227.938C100.227 227.938 99.3017 227.781 98.5173 227.467C97.7486 227.138 97.1133 226.691 96.6113 226.126C96.1093 225.561 95.7328 224.894 95.4818 224.126C95.2464 223.341 95.1288 222.486 95.1288 221.561ZM103.53 220.36C103.545 219.372 103.294 218.564 102.777 217.937C102.275 217.293 101.576 216.972 100.682 216.972C100.18 216.972 99.7332 217.074 99.341 217.278C98.9645 217.466 98.6429 217.717 98.3762 218.031C98.1095 218.345 97.8977 218.705 97.7408 219.113C97.5996 219.521 97.5055 219.937 97.4584 220.36H103.53Z" fill="#10385A"/>
<path d="M114.274 227.938C113.286 227.938 112.415 227.781 111.662 227.467C110.925 227.153 110.297 226.714 109.78 226.149C109.277 225.585 108.901 224.918 108.65 224.149C108.399 223.365 108.273 222.502 108.273 221.561C108.273 220.619 108.407 219.756 108.674 218.972C108.956 218.188 109.348 217.513 109.85 216.948C110.352 216.368 110.964 215.921 111.686 215.607C112.423 215.278 113.239 215.113 114.133 215.113C114.682 215.113 115.231 215.16 115.78 215.254C116.329 215.348 116.855 215.497 117.357 215.701L116.863 217.56C116.533 217.403 116.149 217.278 115.71 217.184C115.286 217.09 114.831 217.042 114.345 217.042C113.121 217.042 112.18 217.427 111.521 218.196C110.878 218.964 110.556 220.086 110.556 221.561C110.556 222.219 110.627 222.823 110.768 223.373C110.925 223.922 111.16 224.392 111.474 224.784C111.803 225.177 112.219 225.483 112.721 225.702C113.223 225.906 113.835 226.008 114.556 226.008C115.137 226.008 115.662 225.953 116.133 225.843C116.604 225.734 116.972 225.616 117.239 225.49L117.545 227.326C117.419 227.404 117.239 227.483 117.004 227.561C116.768 227.624 116.502 227.679 116.204 227.726C115.906 227.789 115.584 227.836 115.239 227.867C114.909 227.914 114.588 227.938 114.274 227.938Z" fill="#10385A"/>
<path d="M121.942 215.419H126.578V217.254H121.942V222.902C121.942 223.514 121.989 224.024 122.083 224.431C122.177 224.824 122.318 225.137 122.507 225.373C122.695 225.592 122.93 225.749 123.212 225.843C123.495 225.937 123.824 225.985 124.201 225.985C124.86 225.985 125.385 225.914 125.777 225.773C126.185 225.616 126.468 225.506 126.625 225.443L127.048 227.255C126.829 227.365 126.444 227.498 125.895 227.655C125.346 227.828 124.718 227.914 124.013 227.914C123.181 227.914 122.491 227.812 121.942 227.608C121.408 227.389 120.977 227.067 120.647 226.643C120.318 226.22 120.083 225.702 119.942 225.09C119.816 224.463 119.753 223.741 119.753 222.925V212.007L121.942 211.63V215.419Z" fill="#10385A"/>
<path d="M133.504 226.079C134.022 226.079 134.477 226.071 134.869 226.055C135.277 226.024 135.614 225.977 135.881 225.914V222.267C135.724 222.188 135.465 222.125 135.104 222.078C134.759 222.016 134.335 221.984 133.833 221.984C133.504 221.984 133.151 222.008 132.774 222.055C132.414 222.102 132.076 222.204 131.763 222.361C131.465 222.502 131.214 222.706 131.01 222.972C130.806 223.223 130.704 223.561 130.704 223.984C130.704 224.769 130.955 225.318 131.457 225.632C131.959 225.93 132.641 226.079 133.504 226.079ZM133.316 215.113C134.194 215.113 134.932 215.231 135.528 215.466C136.139 215.685 136.626 216.007 136.987 216.431C137.363 216.839 137.63 217.333 137.787 217.913C137.944 218.478 138.022 219.105 138.022 219.796V227.444C137.834 227.475 137.567 227.522 137.222 227.585C136.892 227.632 136.516 227.679 136.092 227.726C135.669 227.773 135.206 227.812 134.704 227.844C134.218 227.891 133.731 227.914 133.245 227.914C132.555 227.914 131.919 227.844 131.339 227.702C130.759 227.561 130.257 227.342 129.833 227.043C129.409 226.73 129.08 226.322 128.845 225.82C128.609 225.318 128.492 224.714 128.492 224.008C128.492 223.333 128.625 222.753 128.892 222.267C129.174 221.78 129.551 221.388 130.021 221.09C130.492 220.792 131.041 220.572 131.668 220.431C132.296 220.29 132.955 220.219 133.645 220.219C133.865 220.219 134.092 220.235 134.328 220.266C134.563 220.282 134.782 220.313 134.986 220.36C135.206 220.392 135.394 220.423 135.551 220.455C135.708 220.486 135.818 220.51 135.881 220.525V219.913C135.881 219.553 135.841 219.2 135.763 218.854C135.685 218.494 135.543 218.18 135.339 217.913C135.135 217.631 134.853 217.411 134.492 217.254C134.147 217.082 133.692 216.995 133.127 216.995C132.406 216.995 131.77 217.05 131.221 217.16C130.688 217.254 130.288 217.356 130.021 217.466L129.762 215.654C130.045 215.529 130.515 215.411 131.174 215.301C131.833 215.176 132.547 215.113 133.316 215.113Z" fill="#10385A"/>
<path d="M145.668 229.938C145.84 230.016 146.06 230.087 146.327 230.15C146.609 230.228 146.883 230.267 147.15 230.267C148.013 230.267 148.688 230.071 149.174 229.679C149.66 229.303 150.099 228.683 150.492 227.82C149.503 225.937 148.578 223.945 147.715 221.843C146.868 219.725 146.162 217.584 145.597 215.419H147.95C148.123 216.125 148.327 216.886 148.562 217.701C148.813 218.517 149.088 219.356 149.386 220.219C149.684 221.082 150.005 221.945 150.35 222.808C150.696 223.671 151.056 224.502 151.433 225.302C152.029 223.655 152.547 222.023 152.986 220.408C153.425 218.792 153.841 217.129 154.233 215.419H156.492C155.927 217.725 155.3 219.945 154.61 222.078C153.919 224.196 153.174 226.181 152.374 228.032C152.06 228.738 151.731 229.342 151.386 229.844C151.056 230.361 150.688 230.785 150.28 231.114C149.872 231.444 149.409 231.687 148.891 231.844C148.389 232.001 147.817 232.079 147.174 232.079C147.001 232.079 146.821 232.064 146.632 232.032C146.444 232.017 146.256 231.985 146.068 231.938C145.895 231.907 145.73 231.867 145.574 231.82C145.432 231.773 145.33 231.734 145.268 231.703L145.668 229.938Z" fill="#10385A"/>
<path d="M162.246 232.056C162.058 232.056 161.815 232.032 161.517 231.985C161.219 231.938 160.968 231.875 160.764 231.797L161.046 230.008C161.203 230.056 161.383 230.095 161.587 230.126C161.791 230.158 161.979 230.173 162.152 230.173C162.905 230.173 163.438 229.938 163.752 229.467C164.082 229.012 164.246 228.338 164.246 227.444V215.419H166.435V227.42C166.435 228.989 166.074 230.15 165.352 230.903C164.646 231.671 163.611 232.056 162.246 232.056ZM165.329 213.207C164.937 213.207 164.599 213.081 164.317 212.83C164.05 212.564 163.917 212.211 163.917 211.771C163.917 211.332 164.05 210.987 164.317 210.736C164.599 210.469 164.937 210.336 165.329 210.336C165.721 210.336 166.05 210.469 166.317 210.736C166.6 210.987 166.741 211.332 166.741 211.771C166.741 212.211 166.6 212.564 166.317 212.83C166.05 213.081 165.721 213.207 165.329 213.207Z" fill="#10385A"/>
<path d="M179.94 227.302C179.438 227.428 178.772 227.561 177.94 227.702C177.124 227.844 176.175 227.914 175.093 227.914C174.152 227.914 173.359 227.781 172.716 227.514C172.073 227.232 171.555 226.84 171.163 226.338C170.771 225.836 170.488 225.247 170.316 224.573C170.143 223.882 170.057 223.122 170.057 222.29V215.419H172.245V221.819C172.245 223.31 172.481 224.377 172.951 225.02C173.422 225.663 174.214 225.985 175.328 225.985C175.563 225.985 175.807 225.977 176.058 225.961C176.309 225.945 176.544 225.93 176.764 225.914C176.983 225.883 177.179 225.859 177.352 225.843C177.54 225.812 177.673 225.781 177.752 225.749V215.419H179.94V227.302Z" fill="#10385A"/>
<path d="M183.028 221.561C183.028 220.478 183.185 219.537 183.499 218.737C183.813 217.921 184.228 217.246 184.746 216.713C185.264 216.18 185.86 215.78 186.534 215.513C187.209 215.246 187.899 215.113 188.605 215.113C190.252 215.113 191.515 215.631 192.394 216.666C193.272 217.686 193.712 219.247 193.712 221.349C193.712 221.443 193.712 221.568 193.712 221.725C193.712 221.866 193.704 222 193.688 222.125H185.311C185.405 223.396 185.774 224.361 186.417 225.02C187.06 225.679 188.064 226.008 189.429 226.008C190.198 226.008 190.841 225.945 191.358 225.82C191.892 225.679 192.292 225.545 192.559 225.42L192.864 227.255C192.598 227.396 192.127 227.545 191.453 227.702C190.794 227.859 190.041 227.938 189.193 227.938C188.127 227.938 187.201 227.781 186.417 227.467C185.648 227.138 185.013 226.691 184.511 226.126C184.009 225.561 183.632 224.894 183.381 224.126C183.146 223.341 183.028 222.486 183.028 221.561ZM191.429 220.36C191.445 219.372 191.194 218.564 190.676 217.937C190.174 217.293 189.476 216.972 188.582 216.972C188.08 216.972 187.633 217.074 187.24 217.278C186.864 217.466 186.542 217.717 186.276 218.031C186.009 218.345 185.797 218.705 185.64 219.113C185.499 219.521 185.405 219.937 185.358 220.36H191.429Z" fill="#10385A"/>
<path d="M204.527 226.432C204.338 226.557 203.97 226.722 203.421 226.926C202.887 227.114 202.26 227.208 201.538 227.208C200.801 227.208 200.103 227.091 199.444 226.855C198.801 226.62 198.236 226.259 197.749 225.773C197.263 225.271 196.879 224.651 196.596 223.914C196.314 223.176 196.173 222.298 196.173 221.278C196.173 220.384 196.306 219.568 196.573 218.831C196.84 218.078 197.224 217.435 197.726 216.901C198.244 216.352 198.871 215.929 199.608 215.631C200.346 215.317 201.177 215.16 202.103 215.16C203.123 215.16 204.009 215.238 204.762 215.395C205.531 215.536 206.174 215.67 206.692 215.795V226.714C206.692 228.597 206.205 229.961 205.233 230.809C204.26 231.656 202.785 232.079 200.809 232.079C200.04 232.079 199.31 232.017 198.62 231.891C197.946 231.766 197.357 231.616 196.855 231.444L197.255 229.538C197.695 229.71 198.228 229.859 198.855 229.985C199.499 230.126 200.165 230.197 200.856 230.197C202.158 230.197 203.091 229.938 203.656 229.42C204.236 228.902 204.527 228.079 204.527 226.949V226.432ZM204.503 217.348C204.283 217.286 203.985 217.231 203.609 217.184C203.248 217.121 202.754 217.09 202.126 217.09C200.95 217.09 200.04 217.474 199.397 218.243C198.769 219.011 198.455 220.031 198.455 221.302C198.455 222.008 198.542 222.612 198.714 223.114C198.903 223.616 199.146 224.031 199.444 224.361C199.758 224.69 200.11 224.933 200.503 225.09C200.911 225.247 201.326 225.326 201.75 225.326C202.33 225.326 202.864 225.247 203.35 225.09C203.836 224.918 204.221 224.722 204.503 224.502V217.348Z" fill="#10385A"/>
<path d="M214.601 226.079C215.119 226.079 215.574 226.071 215.966 226.055C216.374 226.024 216.711 225.977 216.978 225.914V222.267C216.821 222.188 216.562 222.125 216.201 222.078C215.856 222.016 215.433 221.984 214.931 221.984C214.601 221.984 214.248 222.008 213.872 222.055C213.511 222.102 213.174 222.204 212.86 222.361C212.562 222.502 212.311 222.706 212.107 222.972C211.903 223.223 211.801 223.561 211.801 223.984C211.801 224.769 212.052 225.318 212.554 225.632C213.056 225.93 213.738 226.079 214.601 226.079ZM214.413 215.113C215.291 215.113 216.029 215.231 216.625 215.466C217.237 215.685 217.723 216.007 218.084 216.431C218.46 216.839 218.727 217.333 218.884 217.913C219.041 218.478 219.119 219.105 219.119 219.796V227.444C218.931 227.475 218.664 227.522 218.319 227.585C217.99 227.632 217.613 227.679 217.19 227.726C216.766 227.773 216.303 227.812 215.801 227.844C215.315 227.891 214.829 227.914 214.342 227.914C213.652 227.914 213.017 227.844 212.436 227.702C211.856 227.561 211.354 227.342 210.93 227.043C210.507 226.73 210.177 226.322 209.942 225.82C209.707 225.318 209.589 224.714 209.589 224.008C209.589 223.333 209.722 222.753 209.989 222.267C210.271 221.78 210.648 221.388 211.118 221.09C211.589 220.792 212.138 220.572 212.766 220.431C213.393 220.29 214.052 220.219 214.742 220.219C214.962 220.219 215.189 220.235 215.425 220.266C215.66 220.282 215.88 220.313 216.084 220.36C216.303 220.392 216.492 220.423 216.648 220.455C216.805 220.486 216.915 220.51 216.978 220.525V219.913C216.978 219.553 216.939 219.2 216.86 218.854C216.782 218.494 216.641 218.18 216.437 217.913C216.233 217.631 215.95 217.411 215.59 217.254C215.244 217.082 214.789 216.995 214.225 216.995C213.503 216.995 212.868 217.05 212.319 217.16C211.785 217.254 211.385 217.356 211.118 217.466L210.86 215.654C211.142 215.529 211.613 215.411 212.272 215.301C212.93 215.176 213.644 215.113 214.413 215.113Z" fill="#10385A"/>
<rect x="46.4189" y="201.656" width="128.585" height="3.73483" rx="1.86742" fill="#EF7522"/>
</svg>
