<svg width="274" height="96" viewBox="0 0 274 96" fill="none" xmlns="http://www.w3.org/2000/svg">
<path d="M12.5989 20.928C13.1715 21.9779 13.8238 23.2823 14.5555 24.8412C15.3191 26.3684 16.0986 28.0387 16.8939 29.8522C17.7211 31.6338 18.5324 33.4632 19.3278 35.3403C20.1232 37.2174 20.8709 38.9832 21.5708 40.6376C22.2707 38.9832 23.0184 37.2174 23.8138 35.3403C24.6092 33.4632 25.4045 31.6338 26.1999 29.8522C27.0271 28.0387 27.8066 26.3684 28.5384 24.8412C29.3019 23.2823 29.97 21.9779 30.5427 20.928H37.3194C37.6375 23.1232 37.9239 25.5889 38.1784 28.325C38.4647 31.0293 38.7034 33.8609 38.8942 36.8197C39.117 39.7467 39.3078 42.6896 39.4669 45.6485C39.6578 48.6073 39.8169 51.3911 39.9441 54H32.6903C32.5948 50.7867 32.4675 47.287 32.3085 43.5009C32.1494 39.7149 31.9108 35.8971 31.5926 32.0474C31.0199 33.3837 30.3836 34.8631 29.6837 36.4857C28.9838 38.1082 28.2838 39.7308 27.5839 41.3534C26.9158 42.976 26.2636 44.5349 25.6272 46.0303C24.9909 47.4938 24.4501 48.7505 24.0047 49.8004H18.8029C18.3574 48.7505 17.8166 47.4938 17.1803 46.0303C16.544 44.5349 15.8759 42.976 15.1759 41.3534C14.5078 39.7308 13.8238 38.1082 13.1238 36.4857C12.4239 34.8631 11.7876 33.3837 11.2149 32.0474C10.8968 35.8971 10.6581 39.7149 10.4991 43.5009C10.34 47.287 10.2127 50.7867 10.1173 54H2.86338C2.99064 51.3911 3.13381 48.6073 3.29289 45.6485C3.48378 42.6896 3.67467 39.7467 3.86556 36.8197C4.08827 33.8609 4.32689 31.0293 4.58141 28.325C4.86775 25.5889 5.16999 23.1232 5.48814 20.928H12.5989ZM55.7625 49.0368C56.4624 49.0368 57.1305 49.0209 57.7668 48.9891C58.4031 48.9573 58.9122 48.9095 59.294 48.8459V43.4532C59.0076 43.3896 58.5781 43.326 58.0054 43.2623C57.4328 43.1987 56.9078 43.1669 56.4306 43.1669C55.7625 43.1669 55.1262 43.2146 54.5217 43.31C53.949 43.3737 53.4399 43.5168 52.9945 43.7396C52.5491 43.9623 52.1991 44.2645 51.9446 44.6463C51.6901 45.0281 51.5628 45.5053 51.5628 46.078C51.5628 47.1915 51.9287 47.971 52.6605 48.4164C53.424 48.83 54.458 49.0368 55.7625 49.0368ZM55.1898 28.2296C57.2896 28.2296 59.0394 28.4682 60.4393 28.9454C61.8392 29.4227 62.9527 30.1067 63.7799 30.9975C64.6389 31.8883 65.2434 32.9701 65.5934 34.2427C65.9434 35.5153 66.1183 36.9311 66.1183 38.49V53.2842C65.1003 53.5069 63.6845 53.7614 61.871 54.0477C60.0575 54.3659 57.8623 54.525 55.2852 54.525C53.6626 54.525 52.1832 54.3818 50.847 54.0954C49.5426 53.8091 48.4131 53.3478 47.4587 52.7115C46.5042 52.0434 45.7724 51.1843 45.2634 50.1344C44.7544 49.0845 44.4998 47.796 44.4998 46.2689C44.4998 44.8054 44.7862 43.5646 45.3588 42.5465C45.9633 41.5284 46.7587 40.7171 47.745 40.1126C48.7313 39.5081 49.8607 39.0786 51.1333 38.8241C52.4059 38.5377 53.7263 38.3946 55.0943 38.3946C56.017 38.3946 56.8283 38.4423 57.5282 38.5377C58.26 38.6014 58.8485 38.6968 59.294 38.8241V38.156C59.294 36.947 58.9281 35.9766 58.1963 35.2449C57.4646 34.5131 56.192 34.1472 54.3785 34.1472C53.1695 34.1472 51.9764 34.2427 50.7993 34.4336C49.6221 34.5926 48.604 34.8313 47.745 35.1494L46.8383 29.4227C47.2519 29.2954 47.7609 29.1681 48.3654 29.0409C49.0017 28.8818 49.6857 28.7545 50.4175 28.6591C51.1492 28.5318 51.9128 28.4364 52.7082 28.3728C53.5354 28.2773 54.3626 28.2296 55.1898 28.2296ZM72.3097 22.646L79.4204 21.5006V28.8977H87.9628V34.8154H79.4204V43.6441C79.4204 45.1394 79.6749 46.3325 80.184 47.2233C80.7248 48.1142 81.7906 48.5596 83.3814 48.5596C84.145 48.5596 84.9244 48.4959 85.7198 48.3687C86.547 48.2096 87.2947 48.0028 87.9628 47.7483L88.965 53.2842C88.106 53.6341 87.1515 53.9364 86.1016 54.1909C85.0517 54.4454 83.7632 54.5727 82.236 54.5727C80.2953 54.5727 78.6886 54.3182 77.416 53.8091C76.1434 53.2682 75.1253 52.5365 74.3617 51.6139C73.5982 50.6594 73.0573 49.514 72.7392 48.1778C72.4528 46.8416 72.3097 45.3621 72.3097 43.7396V22.646ZM91.6282 41.4489C91.6282 39.6354 91.9145 37.9333 92.4872 36.3425C93.0917 34.7199 93.9507 33.32 95.0642 32.1429C96.1777 30.9339 97.5299 29.9794 99.1207 29.2795C100.711 28.5796 102.525 28.2296 104.561 28.2296C105.897 28.2296 107.122 28.3568 108.236 28.6114C109.349 28.8341 110.431 29.1681 111.481 29.6135L110.002 35.2926C109.333 35.0381 108.602 34.8154 107.806 34.6245C107.011 34.4336 106.12 34.3381 105.134 34.3381C103.034 34.3381 101.459 34.9903 100.409 36.2948C99.3911 37.5992 98.8821 39.3172 98.8821 41.4489C98.8821 43.7077 99.3593 45.4576 100.314 46.6984C101.3 47.9392 103.002 48.5596 105.42 48.5596C106.279 48.5596 107.202 48.48 108.188 48.321C109.174 48.1619 110.081 47.9074 110.908 47.5574L111.91 53.3796C111.083 53.7296 110.049 54.0318 108.808 54.2863C107.568 54.5409 106.2 54.6681 104.704 54.6681C102.414 54.6681 100.441 54.3341 98.7866 53.6659C97.1322 52.966 95.7641 52.0274 94.6824 50.8503C93.6325 49.6731 92.853 48.2891 92.344 46.6984C91.8668 45.0758 91.6282 43.326 91.6282 41.4489ZM116.683 54V18.1123L123.793 16.967V28.9931C124.271 28.8341 124.875 28.6909 125.607 28.5636C126.37 28.4046 127.102 28.325 127.802 28.325C129.838 28.325 131.525 28.6114 132.861 29.184C134.229 29.7249 135.311 30.5044 136.106 31.5225C136.933 32.5406 137.506 33.7495 137.824 35.1494C138.174 36.5493 138.349 38.1082 138.349 39.8263V54H131.238V40.6853C131.238 38.3946 130.936 36.772 130.332 35.8175C129.759 34.8631 128.677 34.3858 127.086 34.3858C126.45 34.3858 125.846 34.4495 125.273 34.5767C124.732 34.6722 124.239 34.7835 123.793 34.9108V54H116.683ZM188.837 20.5462C193.769 20.5462 197.555 21.4211 200.195 23.1709C202.836 24.889 204.156 27.7205 204.156 31.6656C204.156 35.6426 202.82 38.5218 200.148 40.3035C197.475 42.0533 193.657 42.9283 188.694 42.9283H186.356V54H178.911V21.4052C180.533 21.087 182.252 20.8643 184.065 20.7371C185.878 20.6098 187.469 20.5462 188.837 20.5462ZM189.315 26.8933C188.774 26.8933 188.233 26.9092 187.692 26.9411C187.183 26.9729 186.737 27.0047 186.356 27.0365V36.5811H188.694C191.271 36.5811 193.212 36.2311 194.516 35.5312C195.821 34.8313 196.473 33.5268 196.473 31.6179C196.473 30.6953 196.298 29.9317 195.948 29.3272C195.63 28.7227 195.153 28.2455 194.516 27.8955C193.912 27.5137 193.164 27.2592 192.273 27.132C191.383 26.9729 190.396 26.8933 189.315 26.8933ZM219.168 54.4772C217.1 54.4454 215.414 54.2227 214.109 53.8091C212.837 53.3955 211.819 52.8228 211.055 52.0911C210.323 51.3275 209.814 50.4208 209.528 49.3709C209.273 48.2891 209.146 47.0802 209.146 45.7439V18.1123L216.257 16.967V44.3122C216.257 44.9485 216.304 45.5212 216.4 46.0303C216.495 46.5393 216.67 46.9688 216.925 47.3188C217.211 47.6687 217.609 47.9551 218.118 48.1778C218.627 48.4005 219.311 48.5437 220.17 48.6073L219.168 54.4772ZM234.537 49.0368C235.237 49.0368 235.905 49.0209 236.542 48.9891C237.178 48.9573 237.687 48.9095 238.069 48.8459V43.4532C237.782 43.3896 237.353 43.326 236.78 43.2623C236.208 43.1987 235.683 43.1669 235.205 43.1669C234.537 43.1669 233.901 43.2146 233.296 43.31C232.724 43.3737 232.215 43.5168 231.769 43.7396C231.324 43.9623 230.974 44.2645 230.719 44.6463C230.465 45.0281 230.338 45.5053 230.338 46.078C230.338 47.1915 230.704 47.971 231.435 48.4164C232.199 48.83 233.233 49.0368 234.537 49.0368ZM233.965 28.2296C236.064 28.2296 237.814 28.4682 239.214 28.9454C240.614 29.4227 241.728 30.1067 242.555 30.9975C243.414 31.8883 244.018 32.9701 244.368 34.2427C244.718 35.5153 244.893 36.9311 244.893 38.49V53.2842C243.875 53.5069 242.459 53.7614 240.646 54.0477C238.832 54.3659 236.637 54.525 234.06 54.525C232.437 54.525 230.958 54.3818 229.622 54.0954C228.317 53.8091 227.188 53.3478 226.233 52.7115C225.279 52.0434 224.547 51.1843 224.038 50.1344C223.529 49.0845 223.275 47.796 223.275 46.2689C223.275 44.8054 223.561 43.5646 224.134 42.5465C224.738 41.5284 225.534 40.7171 226.52 40.1126C227.506 39.5081 228.636 39.0786 229.908 38.8241C231.181 38.5377 232.501 38.3946 233.869 38.3946C234.792 38.3946 235.603 38.4423 236.303 38.5377C237.035 38.6014 237.623 38.6968 238.069 38.8241V38.156C238.069 36.947 237.703 35.9766 236.971 35.2449C236.239 34.5131 234.967 34.1472 233.153 34.1472C231.944 34.1472 230.751 34.2427 229.574 34.4336C228.397 34.5926 227.379 34.8313 226.52 35.1494L225.613 29.4227C226.027 29.2954 226.536 29.1681 227.14 29.0409C227.777 28.8818 228.461 28.7545 229.192 28.6591C229.924 28.5318 230.688 28.4364 231.483 28.3728C232.31 28.2773 233.137 28.2296 233.965 28.2296ZM273.004 28.8977C271.572 33.7336 270.077 38.2673 268.518 42.4988C266.959 46.7302 265.257 50.8344 263.412 54.8113C262.743 56.243 262.075 57.452 261.407 58.4382C260.739 59.4563 260.007 60.2835 259.212 60.9198C258.417 61.588 257.51 62.0652 256.492 62.3515C255.505 62.6697 254.344 62.8288 253.008 62.8288C251.894 62.8288 250.86 62.7174 249.906 62.4947C248.983 62.3038 248.22 62.0811 247.615 61.8266L248.856 56.1475C249.588 56.4021 250.24 56.577 250.813 56.6725C251.385 56.7679 251.99 56.8157 252.626 56.8157C253.899 56.8157 254.869 56.4657 255.537 55.7658C256.237 55.0976 256.826 54.1591 257.303 52.9501C255.68 49.7686 254.058 46.2052 252.435 42.2601C250.813 38.2832 249.286 33.8291 247.854 28.8977H255.394C255.712 30.1385 256.078 31.4907 256.492 32.9542C256.937 34.3858 257.398 35.8494 257.876 37.3447C258.353 38.8082 258.83 40.2399 259.307 41.6397C259.816 43.0396 260.294 44.3122 260.739 45.4576C261.153 44.3122 261.582 43.0396 262.028 41.6397C262.473 40.2399 262.902 38.8082 263.316 37.3447C263.762 35.8494 264.175 34.3858 264.557 32.9542C264.97 31.4907 265.336 30.1385 265.655 28.8977H273.004Z" fill="#10385A"/>
<path d="M143.115 45.219C143.115 44.01 143.29 42.9124 143.64 41.9261C143.99 40.908 144.451 40.0013 145.024 39.2059C145.628 38.3787 146.312 37.6628 147.076 37.0583C147.871 36.422 148.699 35.8653 149.558 35.388C148.794 34.4654 148.11 33.4791 147.505 32.4292C146.901 31.3475 146.599 30.1703 146.599 28.8977C146.599 26.098 147.442 23.9504 149.128 22.4551C150.814 20.928 153.137 20.1644 156.096 20.1644C157.591 20.1644 158.895 20.3712 160.009 20.7848C161.122 21.1666 162.045 21.7074 162.777 22.4074C163.54 23.0755 164.113 23.8709 164.495 24.7935C164.877 25.6844 165.068 26.6547 165.068 27.7046C165.068 29.6454 164.511 31.3793 163.397 32.9064C162.315 34.4018 160.932 35.6585 159.245 36.6766L164.59 42.0215C164.877 41.3852 165.147 40.5898 165.402 39.6354C165.688 38.6491 165.863 37.7901 165.927 37.0583L171.844 37.8219C171.781 38.4264 171.669 39.0945 171.51 39.8263C171.351 40.5262 171.144 41.2421 170.89 41.9738C170.667 42.7056 170.397 43.4373 170.078 44.1691C169.792 44.9008 169.474 45.5689 169.124 46.1734C170.142 47.3188 171.128 48.5755 172.083 49.9435C173.069 51.2798 173.912 52.6319 174.612 54H167.31C167.056 53.5864 166.706 53.0774 166.261 52.4729C165.815 51.8366 165.37 51.2957 164.924 50.8503C163.652 51.8684 162.172 52.7274 160.486 53.4273C158.8 54.0954 156.907 54.4295 154.807 54.4295C152.58 54.4295 150.719 54.1591 149.223 53.6182C147.728 53.0455 146.519 52.3297 145.597 51.4707C144.706 50.5799 144.069 49.5936 143.688 48.5119C143.306 47.3983 143.115 46.3007 143.115 45.219ZM149.748 44.5031C149.748 44.9804 149.844 45.4735 150.035 45.9825C150.226 46.4916 150.528 46.9688 150.942 47.4142C151.387 47.8278 151.944 48.1778 152.612 48.4641C153.28 48.7187 154.091 48.8459 155.046 48.8459C156.382 48.8459 157.543 48.6709 158.529 48.321C159.548 47.971 160.391 47.5097 161.059 46.937L153.423 39.2536C152.978 39.4763 152.532 39.7467 152.087 40.0649C151.673 40.383 151.291 40.7648 150.942 41.2102C150.592 41.6238 150.305 42.1011 150.082 42.6419C149.86 43.1828 149.748 43.8032 149.748 44.5031ZM159.007 28.0387C159.007 27.3069 158.768 26.6547 158.291 26.082C157.814 25.5094 157.018 25.223 155.905 25.223C154.887 25.223 154.091 25.5412 153.519 26.1775C152.978 26.782 152.707 27.5774 152.707 28.5636C152.707 29.3908 152.946 30.2021 153.423 30.9975C153.9 31.7611 154.521 32.4928 155.284 33.1928C156.302 32.6201 157.177 31.9361 157.909 31.1407C158.641 30.3453 159.007 29.3113 159.007 28.0387Z" fill="#EF7522"/>
<path d="M61.3243 86.644C60.1791 86.644 59.1358 86.4557 58.1946 86.0792C57.2533 85.7027 56.4454 85.1536 55.7708 84.432C55.0962 83.7104 54.5707 82.824 54.1942 81.7729C53.8333 80.7061 53.6529 79.4903 53.6529 78.1255C53.6529 76.7607 53.8569 75.5527 54.2648 74.5016C54.6883 73.4348 55.2531 72.5406 55.959 71.819C56.665 71.0973 57.4886 70.5483 58.4299 70.1718C59.3711 69.7953 60.3752 69.607 61.4419 69.607C62.1165 69.607 62.7205 69.6541 63.2539 69.7482C63.803 69.8423 64.2736 69.9521 64.6658 70.0776C65.0737 70.2031 65.4031 70.3286 65.6541 70.4541C65.9051 70.5796 66.0777 70.6738 66.1718 70.7365L65.5129 72.6191C65.3717 72.5249 65.1678 72.423 64.9011 72.3132C64.6344 72.2033 64.3285 72.0935 63.9834 71.9837C63.6539 71.8739 63.2853 71.7876 62.8774 71.7249C62.4852 71.6464 62.0851 71.6072 61.6773 71.6072C60.8144 71.6072 60.0379 71.7562 59.3476 72.0543C58.6573 72.3524 58.0691 72.7838 57.5827 73.3485C57.0964 73.9133 56.7199 74.6036 56.4532 75.4193C56.2022 76.2194 56.0767 77.1215 56.0767 78.1255C56.0767 79.0981 56.1865 79.9845 56.4061 80.7846C56.6415 81.5847 56.9866 82.2749 57.4415 82.8554C57.8965 83.4201 58.4613 83.8594 59.1358 84.1732C59.8261 84.4869 60.6262 84.6438 61.5361 84.6438C62.5872 84.6438 63.4578 84.534 64.1481 84.3143C64.8384 84.0947 65.3561 83.8986 65.7012 83.7261L66.2895 85.6086C66.1797 85.687 65.9836 85.789 65.7012 85.9145C65.4188 86.0243 65.0658 86.1341 64.6423 86.244C64.2187 86.3538 63.7245 86.4479 63.1598 86.5263C62.595 86.6048 61.9832 86.644 61.3243 86.644ZM79.2194 80.1728C79.2194 81.1454 79.0783 82.0239 78.7959 82.8083C78.5135 83.5927 78.1135 84.2673 77.5958 84.832C77.0937 85.3968 76.4898 85.8361 75.7838 86.1498C75.0779 86.4479 74.3092 86.5969 73.4777 86.5969C72.6462 86.5969 71.8775 86.4479 71.1716 86.1498C70.4656 85.8361 69.8538 85.3968 69.3361 84.832C68.8341 84.2673 68.4419 83.5927 68.1595 82.8083C67.8771 82.0239 67.7359 81.1454 67.7359 80.1728C67.7359 79.2158 67.8771 78.3451 68.1595 77.5607C68.4419 76.7607 68.8341 76.0782 69.3361 75.5135C69.8538 74.9487 70.4656 74.5173 71.1716 74.2192C71.8775 73.9055 72.6462 73.7486 73.4777 73.7486C74.3092 73.7486 75.0779 73.9055 75.7838 74.2192C76.4898 74.5173 77.0937 74.9487 77.5958 75.5135C78.1135 76.0782 78.5135 76.7607 78.7959 77.5607C79.0783 78.3451 79.2194 79.2158 79.2194 80.1728ZM76.9369 80.1728C76.9369 78.7922 76.6231 77.7019 75.9956 76.9018C75.3838 76.0861 74.5445 75.6782 73.4777 75.6782C72.4109 75.6782 71.5638 76.0861 70.9363 76.9018C70.3244 77.7019 70.0185 78.7922 70.0185 80.1728C70.0185 81.5533 70.3244 82.6514 70.9363 83.4672C71.5638 84.2673 72.4109 84.6673 73.4777 84.6673C74.5445 84.6673 75.3838 84.2673 75.9956 83.4672C76.6231 82.6514 76.9369 81.5533 76.9369 80.1728ZM82.2984 74.4075C82.8004 74.282 83.4672 74.1486 84.2986 74.0074C85.1301 73.8662 86.087 73.7957 87.1695 73.7957C88.1422 73.7957 88.9501 73.9368 89.5933 74.2192C90.2365 74.4859 90.7463 74.8703 91.1228 75.3723C91.515 75.8586 91.7896 76.4469 91.9465 77.1372C92.1033 77.8274 92.1818 78.5883 92.1818 79.4197V86.291H89.9933V79.8904C89.9933 79.1374 89.9384 78.4942 89.8286 77.9608C89.7345 77.4274 89.5697 76.996 89.3344 76.6665C89.0991 76.3371 88.7854 76.1018 88.3932 75.9606C88.001 75.8037 87.5146 75.7253 86.9342 75.7253C86.6989 75.7253 86.4557 75.7331 86.2047 75.7488C85.9537 75.7645 85.7105 75.788 85.4752 75.8194C85.2556 75.8351 85.0516 75.8586 84.8634 75.89C84.6908 75.9214 84.5653 75.9449 84.4869 75.9606V86.291H82.2984V74.4075ZM95.1284 80.1963C95.1284 79.1138 95.2853 78.1726 95.599 77.3725C95.9128 76.5567 96.3285 75.8821 96.8462 75.3487C97.3639 74.8154 97.96 74.4153 98.6346 74.1486C99.3092 73.8819 99.9995 73.7486 100.705 73.7486C102.353 73.7486 103.616 74.2663 104.494 75.3017C105.373 76.3214 105.812 77.8823 105.812 79.9845C105.812 80.0786 105.812 80.2041 105.812 80.361C105.812 80.5022 105.804 80.6355 105.788 80.7611H97.411C97.5051 82.0318 97.8738 82.9966 98.517 83.6555C99.1602 84.3143 100.164 84.6438 101.529 84.6438C102.298 84.6438 102.941 84.581 103.459 84.4555C103.992 84.3143 104.392 84.181 104.659 84.0555L104.965 85.891C104.698 86.0322 104.227 86.1812 103.553 86.3381C102.894 86.495 102.141 86.5734 101.294 86.5734C100.227 86.5734 99.3013 86.4165 98.517 86.1028C97.7483 85.7733 97.1129 85.3262 96.6109 84.7615C96.1089 84.1967 95.7324 83.53 95.4814 82.7613C95.246 81.9769 95.1284 81.1219 95.1284 80.1963ZM103.529 78.9962C103.545 78.0078 103.294 77.1999 102.776 76.5724C102.274 75.9292 101.576 75.6076 100.682 75.6076C100.18 75.6076 99.7328 75.7096 99.3406 75.9135C98.9641 76.1018 98.6425 76.3528 98.3758 76.6665C98.1091 76.9803 97.8973 77.3411 97.7404 77.749C97.5992 78.1569 97.5051 78.5726 97.458 78.9962H103.529ZM114.274 86.5734C113.285 86.5734 112.415 86.4165 111.662 86.1028C110.924 85.789 110.297 85.3497 109.779 84.785C109.277 84.2202 108.901 83.5535 108.65 82.7848C108.399 82.0004 108.273 81.1376 108.273 80.1963C108.273 79.255 108.406 78.3922 108.673 77.6078C108.956 76.8234 109.348 76.1488 109.85 75.5841C110.352 75.0036 110.964 74.5565 111.685 74.2428C112.423 73.9133 113.238 73.7486 114.132 73.7486C114.682 73.7486 115.231 73.7957 115.78 73.8898C116.329 73.9839 116.854 74.1329 117.356 74.3369L116.862 76.1959C116.533 76.039 116.148 75.9135 115.709 75.8194C115.286 75.7253 114.831 75.6782 114.344 75.6782C113.121 75.6782 112.179 76.0625 111.52 76.8312C110.877 77.6 110.556 78.7216 110.556 80.1963C110.556 80.8552 110.626 81.4592 110.767 82.0082C110.924 82.5573 111.16 83.0279 111.473 83.4201C111.803 83.8123 112.219 84.1182 112.721 84.3379C113.223 84.5418 113.834 84.6438 114.556 84.6438C115.137 84.6438 115.662 84.5889 116.133 84.4791C116.603 84.3693 116.972 84.2516 117.239 84.1261L117.545 85.9616C117.419 86.04 117.239 86.1184 117.003 86.1969C116.768 86.2596 116.501 86.3145 116.203 86.3616C115.905 86.4244 115.584 86.4714 115.238 86.5028C114.909 86.5499 114.587 86.5734 114.274 86.5734ZM121.941 74.0545H126.577V75.89H121.941V81.5376C121.941 82.1494 121.988 82.6593 122.083 83.0672C122.177 83.4594 122.318 83.7731 122.506 84.0084C122.694 84.2281 122.93 84.3849 123.212 84.4791C123.494 84.5732 123.824 84.6203 124.2 84.6203C124.859 84.6203 125.385 84.5497 125.777 84.4085C126.185 84.2516 126.467 84.1418 126.624 84.079L127.048 85.891C126.828 86.0008 126.444 86.1341 125.895 86.291C125.346 86.4636 124.718 86.5499 124.012 86.5499C123.181 86.5499 122.49 86.4479 121.941 86.244C121.408 86.0243 120.977 85.7027 120.647 85.2792C120.318 84.8556 120.082 84.3379 119.941 83.7261C119.816 83.0985 119.753 82.3769 119.753 81.5611V70.6424L121.941 70.2659V74.0545ZM133.504 84.7144C134.021 84.7144 134.476 84.7065 134.868 84.6909C135.276 84.6595 135.614 84.6124 135.88 84.5497V80.9022C135.723 80.8238 135.465 80.7611 135.104 80.714C134.759 80.6512 134.335 80.6199 133.833 80.6199C133.504 80.6199 133.151 80.6434 132.774 80.6905C132.413 80.7375 132.076 80.8395 131.762 80.9964C131.464 81.1376 131.213 81.3415 131.009 81.6082C130.805 81.8592 130.703 82.1965 130.703 82.6201C130.703 83.4045 130.954 83.9535 131.456 84.2673C131.958 84.5654 132.641 84.7144 133.504 84.7144ZM133.315 73.7486C134.194 73.7486 134.931 73.8662 135.527 74.1016C136.139 74.3212 136.625 74.6428 136.986 75.0664C137.363 75.4743 137.629 75.9684 137.786 76.5489C137.943 77.1136 138.022 77.7411 138.022 78.4314V86.0792C137.833 86.1106 137.567 86.1577 137.222 86.2204C136.892 86.2675 136.516 86.3145 136.092 86.3616C135.668 86.4087 135.206 86.4479 134.704 86.4793C134.217 86.5263 133.731 86.5499 133.245 86.5499C132.554 86.5499 131.919 86.4793 131.339 86.3381C130.758 86.1969 130.256 85.9773 129.833 85.6792C129.409 85.3654 129.08 84.9575 128.844 84.4555C128.609 83.9535 128.491 83.3495 128.491 82.6436C128.491 81.969 128.625 81.3886 128.891 80.9022C129.174 80.4159 129.55 80.0237 130.021 79.7257C130.491 79.4276 131.041 79.208 131.668 79.0668C132.296 78.9256 132.954 78.855 133.645 78.855C133.864 78.855 134.092 78.8707 134.327 78.902C134.562 78.9177 134.782 78.9491 134.986 78.9962C135.206 79.0275 135.394 79.0589 135.551 79.0903C135.708 79.1217 135.817 79.1452 135.88 79.1609V78.5491C135.88 78.1882 135.841 77.8353 135.763 77.4901C135.684 77.1293 135.543 76.8156 135.339 76.5489C135.135 76.2665 134.853 76.0469 134.492 75.89C134.147 75.7174 133.692 75.6311 133.127 75.6311C132.405 75.6311 131.77 75.686 131.221 75.7959C130.688 75.89 130.288 75.9919 130.021 76.1018L129.762 74.2898C130.044 74.1643 130.515 74.0467 131.174 73.9368C131.833 73.8113 132.547 73.7486 133.315 73.7486ZM145.667 88.5736C145.84 88.652 146.059 88.7226 146.326 88.7854C146.609 88.8638 146.883 88.903 147.15 88.903C148.013 88.903 148.687 88.7069 149.173 88.3147C149.66 87.9382 150.099 87.3186 150.491 86.4557C149.503 84.5732 148.577 82.5808 147.715 80.4787C146.867 78.3608 146.161 76.2194 145.597 74.0545H147.95C148.122 74.7605 148.326 75.5213 148.562 76.3371C148.813 77.1528 149.087 77.9921 149.385 78.855C149.683 79.7178 150.005 80.5806 150.35 81.4435C150.695 82.3063 151.056 83.1378 151.433 83.9378C152.029 82.2906 152.546 80.6591 152.986 79.0432C153.425 77.4274 153.841 75.7645 154.233 74.0545H156.492C155.927 76.3606 155.3 78.5804 154.609 80.714C153.919 82.8318 153.174 84.8164 152.374 86.6675C152.06 87.3735 151.731 87.9775 151.385 88.4795C151.056 88.9972 150.687 89.4207 150.279 89.7502C149.872 90.0796 149.409 90.3228 148.891 90.4797C148.389 90.6365 147.816 90.715 147.173 90.715C147.001 90.715 146.82 90.6993 146.632 90.6679C146.444 90.6522 146.256 90.6209 146.067 90.5738C145.895 90.5424 145.73 90.5032 145.573 90.4561C145.432 90.4091 145.33 90.3699 145.267 90.3385L145.667 88.5736ZM162.246 90.6915C162.057 90.6915 161.814 90.6679 161.516 90.6209C161.218 90.5738 160.967 90.511 160.763 90.4326L161.046 88.6442C161.202 88.6913 161.383 88.7305 161.587 88.7619C161.791 88.7932 161.979 88.8089 162.152 88.8089C162.905 88.8089 163.438 88.5736 163.752 88.103C164.081 87.648 164.246 86.9734 164.246 86.0792V74.0545H166.434V86.0557C166.434 87.6245 166.074 88.7854 165.352 89.5384C164.646 90.3071 163.611 90.6915 162.246 90.6915ZM165.328 71.8425C164.936 71.8425 164.599 71.717 164.317 71.466C164.05 71.1993 163.916 70.8463 163.916 70.4071C163.916 69.9678 164.05 69.6227 164.317 69.3717C164.599 69.105 164.936 68.9716 165.328 68.9716C165.721 68.9716 166.05 69.105 166.317 69.3717C166.599 69.6227 166.74 69.9678 166.74 70.4071C166.74 70.8463 166.599 71.1993 166.317 71.466C166.05 71.717 165.721 71.8425 165.328 71.8425ZM179.94 85.938C179.438 86.0635 178.771 86.1969 177.94 86.3381C177.124 86.4793 176.175 86.5499 175.092 86.5499C174.151 86.5499 173.359 86.4165 172.716 86.1498C172.073 85.8674 171.555 85.4752 171.163 84.9732C170.77 84.4712 170.488 83.8829 170.315 83.2084C170.143 82.5181 170.057 81.7572 170.057 80.9258V74.0545H172.245V80.4551C172.245 81.9455 172.48 83.0123 172.951 83.6555C173.422 84.2987 174.214 84.6203 175.328 84.6203C175.563 84.6203 175.806 84.6124 176.057 84.5967C176.308 84.581 176.544 84.5654 176.763 84.5497C176.983 84.5183 177.179 84.4948 177.351 84.4791C177.54 84.4477 177.673 84.4163 177.752 84.3849V74.0545H179.94V85.938ZM183.028 80.1963C183.028 79.1138 183.185 78.1726 183.498 77.3725C183.812 76.5567 184.228 75.8821 184.746 75.3487C185.263 74.8154 185.859 74.4153 186.534 74.1486C187.209 73.8819 187.899 73.7486 188.605 73.7486C190.252 73.7486 191.515 74.2663 192.393 75.3017C193.272 76.3214 193.711 77.8823 193.711 79.9845C193.711 80.0786 193.711 80.2041 193.711 80.361C193.711 80.5022 193.703 80.6355 193.688 80.7611H185.31C185.404 82.0318 185.773 82.9966 186.416 83.6555C187.06 84.3143 188.064 84.6438 189.428 84.6438C190.197 84.6438 190.84 84.581 191.358 84.4555C191.891 84.3143 192.291 84.181 192.558 84.0555L192.864 85.891C192.597 86.0322 192.127 86.1812 191.452 86.3381C190.793 86.495 190.04 86.5734 189.193 86.5734C188.126 86.5734 187.201 86.4165 186.416 86.1028C185.648 85.7733 185.012 85.3262 184.51 84.7615C184.008 84.1967 183.632 83.53 183.381 82.7613C183.145 81.9769 183.028 81.1219 183.028 80.1963ZM191.429 78.9962C191.444 78.0078 191.193 77.1999 190.676 76.5724C190.174 75.9292 189.475 75.6076 188.581 75.6076C188.079 75.6076 187.632 75.7096 187.24 75.9135C186.863 76.1018 186.542 76.3528 186.275 76.6665C186.008 76.9803 185.797 77.3411 185.64 77.749C185.499 78.1569 185.404 78.5726 185.357 78.9962H191.429ZM204.526 85.0674C204.338 85.1929 203.969 85.3576 203.42 85.5615C202.887 85.7498 202.259 85.8439 201.538 85.8439C200.8 85.8439 200.102 85.7263 199.443 85.4909C198.8 85.2556 198.235 84.8948 197.749 84.4085C197.263 83.9065 196.878 83.2868 196.596 82.5495C196.314 81.8121 196.172 80.9336 196.172 79.9139C196.172 79.0197 196.306 78.2039 196.572 77.4666C196.839 76.7136 197.224 76.0704 197.726 75.537C198.243 74.9879 198.871 74.5644 199.608 74.2663C200.345 73.9525 201.177 73.7957 202.102 73.7957C203.122 73.7957 204.009 73.8741 204.762 74.031C205.53 74.1722 206.173 74.3055 206.691 74.431V85.3497C206.691 87.2323 206.205 88.5971 205.232 89.4443C204.26 90.2914 202.785 90.715 200.808 90.715C200.04 90.715 199.31 90.6522 198.62 90.5267C197.945 90.4012 197.357 90.2522 196.855 90.0796L197.255 88.1736C197.694 88.3461 198.228 88.4952 198.855 88.6207C199.498 88.7619 200.165 88.8324 200.855 88.8324C202.157 88.8324 203.091 88.5736 203.656 88.0559C204.236 87.5382 204.526 86.7146 204.526 85.5851V85.0674ZM204.503 75.9841C204.283 75.9214 203.985 75.8664 203.608 75.8194C203.248 75.7566 202.754 75.7253 202.126 75.7253C200.949 75.7253 200.04 76.1096 199.396 76.8783C198.769 77.647 198.455 78.6667 198.455 79.9374C198.455 80.6434 198.541 81.2474 198.714 81.7494C198.902 82.2514 199.145 82.6671 199.443 82.9966C199.757 83.326 200.11 83.5692 200.502 83.7261C200.91 83.8829 201.326 83.9614 201.749 83.9614C202.33 83.9614 202.863 83.8829 203.35 83.7261C203.836 83.5535 204.22 83.3574 204.503 83.1378V75.9841ZM214.601 84.7144C215.118 84.7144 215.573 84.7065 215.966 84.6909C216.374 84.6595 216.711 84.6124 216.977 84.5497V80.9022C216.821 80.8238 216.562 80.7611 216.201 80.714C215.856 80.6512 215.432 80.6199 214.93 80.6199C214.601 80.6199 214.248 80.6434 213.871 80.6905C213.51 80.7375 213.173 80.8395 212.859 80.9964C212.561 81.1376 212.31 81.3415 212.106 81.6082C211.902 81.8592 211.8 82.1965 211.8 82.6201C211.8 83.4045 212.052 83.9535 212.554 84.2673C213.056 84.5654 213.738 84.7144 214.601 84.7144ZM214.413 73.7486C215.291 73.7486 216.028 73.8662 216.625 74.1016C217.236 74.3212 217.723 74.6428 218.083 75.0664C218.46 75.4743 218.727 75.9684 218.884 76.5489C219.04 77.1136 219.119 77.7411 219.119 78.4314V86.0792C218.931 86.1106 218.664 86.1577 218.319 86.2204C217.989 86.2675 217.613 86.3145 217.189 86.3616C216.766 86.4087 216.303 86.4479 215.801 86.4793C215.315 86.5263 214.828 86.5499 214.342 86.5499C213.652 86.5499 213.016 86.4793 212.436 86.3381C211.855 86.1969 211.353 85.9773 210.93 85.6792C210.506 85.3654 210.177 84.9575 209.941 84.4555C209.706 83.9535 209.589 83.3495 209.589 82.6436C209.589 81.969 209.722 81.3886 209.989 80.9022C210.271 80.4159 210.647 80.0237 211.118 79.7257C211.589 79.4276 212.138 79.208 212.765 79.0668C213.393 78.9256 214.052 78.855 214.742 78.855C214.962 78.855 215.189 78.8707 215.424 78.902C215.66 78.9177 215.879 78.9491 216.083 78.9962C216.303 79.0275 216.491 79.0589 216.648 79.0903C216.805 79.1217 216.915 79.1452 216.977 79.1609V78.5491C216.977 78.1882 216.938 77.8353 216.86 77.4901C216.781 77.1293 216.64 76.8156 216.436 76.5489C216.232 76.2665 215.95 76.0469 215.589 75.89C215.244 75.7174 214.789 75.6311 214.224 75.6311C213.503 75.6311 212.867 75.686 212.318 75.7959C211.785 75.89 211.385 75.9919 211.118 76.1018L210.859 74.2898C211.142 74.1643 211.612 74.0467 212.271 73.9368C212.93 73.8113 213.644 73.7486 214.413 73.7486Z" fill="#10385A"/>
<rect x="46.4189" y="60.291" width="128.585" height="3.73483" rx="1.86742" fill="#EF7522"/>
</svg>
