<svg width="137" height="125" viewBox="0 0 137 125" fill="none" xmlns="http://www.w3.org/2000/svg">
<path d="M80.0576 0.21582C99.0825 -2.25419 101.059 17.2646 99.8232 19.7354C99.2825 20.8171 98.9147 22.0469 98.6787 23.1006C98.3806 24.4316 98.6889 25.8259 99.501 26.9219C101.764 29.9765 104.222 30.8132 111.189 29.124C116.842 27.7537 120.166 31.5122 121.072 33.3242L136.145 69.6455C137.528 74.3892 134.909 77.3869 133.427 78.293L87.7168 97.3184C81.9849 100.481 78.0813 97.9773 76.8457 96.3301L71.4092 82.4932C80.7982 79.7753 80.0576 74.586 80.0576 71.8682L82.2812 68.9033L78.3281 66.1855L79.0693 61.9854C79.0693 60.2565 75.3623 60.0097 75.1152 61.2441L74.6211 63.7148C72.8439 63.5161 71.5732 61.985 71.1602 61.2441C72.9721 60.8327 74.6427 56.8875 73.1367 54.3271C70.6659 50.1268 65.0658 51.6093 62.7598 53.0918C62.2656 49.1386 65.9716 46.6671 67.7012 46.1729C69.0847 45.7775 72.2306 43.7023 73.6309 42.7139C79.3897 37.195 75.129 33.307 70.8066 30.8242C70.5524 30.6782 70.3104 30.4937 70.1104 30.2793C57.2876 16.5374 70.4961 1.93229 80.0576 0.21582ZM107.481 44.6914C104.902 43.2837 101.922 42.9623 97.8457 43.7021C93.769 44.4421 83.5147 48.8925 81.5381 49.8809C79.5621 50.869 79.9733 52.1858 80.3027 52.8447L92.4102 82.4941C93.2009 85.2609 94.5515 85.2948 95.1279 84.9658C96.034 84.6363 98.2905 83.7799 100.069 82.9893C101.848 82.1986 102.128 81.1774 102.046 80.7656L99.5752 74.5889C99.1799 73.996 99.0811 72.6948 99.0811 72.1182C107.976 69.9439 112.177 64.7877 113.165 62.4814C116.871 50.6216 110.199 46.1749 107.481 44.6914ZM97.8457 52.1035C99.2457 51.6917 102.342 51.4616 103.528 53.833C104.714 56.2048 105.753 59.0223 104.765 60.5049C103.776 61.9874 99.6248 64.1117 95.8691 64.7051L91.6689 54.5742L97.8457 52.1035ZM66.7129 55.5625C67.2071 55.3978 68.2941 55.266 68.6895 56.0566C69.0847 56.8473 68.8542 58.0332 68.6895 58.5273C68.5247 58.7745 68.0964 59.2686 67.7012 59.2686C66.7129 58.6097 65.132 56.9461 66.7129 55.5625Z" fill="#EF7522"/>
<path d="M49.4814 28.0195C53.1053 26.3724 59.6113 24.6583 62.5762 32.96L66.5293 42.5977C62.9054 44.1626 56.7452 49.0717 61.0938 56.1875C61.0939 57.5055 61.7363 60.5361 64.3057 62.1172C62.329 63.9292 59.4137 68.4916 63.5645 72.2471C68.5615 76.7682 76.0793 71.4353 75.9658 70.5938C75.9499 70.5675 75.9344 70.5419 75.9189 70.5176C75.9461 70.5358 75.9615 70.5616 75.9658 70.5938C76.5425 71.5448 77.3744 73.728 76.4131 75.459C75.4248 76.8426 69.5766 79.4954 66.7764 80.6484C64.6349 81.7192 60.3525 84.4039 60.3525 86.5781V90.7783C66.5295 94.4845 69.247 96.7087 71.7178 104.862C72.4589 109.475 71.1247 119.736 59.8584 123.887C46.0219 128.984 32.4324 115.733 38.3623 101.402C38.6091 98.9315 36.3352 94.7809 27.2432 95.9668C24.278 97.0374 17.7063 97.6469 15.1367 91.5195L0.558594 57.4229C-0.264998 54.6229 -1.17058 49.5158 5.74707 46.5508L49.4814 28.0195ZM47.5039 40.3721C47.3392 40.0426 46.4663 39.532 44.292 40.125C42.1177 40.718 39.2683 41.8545 38.3623 42.3486L36.8799 60.8789L23.5371 49.0195C22.8781 48.9372 21.0664 49.069 19.0898 50.2549C17.1135 51.4407 15.9605 52.2313 15.6309 52.4785C15.3014 52.6432 14.7908 53.2197 15.3838 54.208C15.9768 55.1963 23.5369 73.5623 27.2432 82.6221C27.2432 82.6221 27.9845 83.3631 28.9727 83.1162C29.961 82.8691 34.6562 80.6475 34.6562 80.6475C35.068 80.0698 35.6444 78.5687 34.6562 77.1865C33.6679 75.8042 29.961 66.8917 28.2314 62.6084L38.3623 71.2568L42.8096 69.5273L44.0449 56.1865L51.21 72.2471C51.5394 72.5759 52.1986 72.9861 53.6807 72.4922C54.669 72.0969 57.3876 70.6804 58.623 70.0215C58.8701 69.6097 59.1663 68.4895 58.376 67.3037L47.5039 40.3721Z" fill="#10385A"/>
<path d="M72.1493 68.4103L67.4548 65.4453C66.8783 66.4336 65.4781 67.9161 67.4548 69.3986C69.4315 70.8811 71.6551 69.0692 72.1493 68.4103Z" fill="#10385A"/>
</svg>
